<svg id="图层_1" data-name="图层 1" xmlns="http://www.w3.org/2000/svg" viewBox="0 0 200 200"><title>人物插画01</title><path d="M81.67,135.23h38.74l4.37,18.33,11.66,2.71s-1.67,18.33-33.95,16.25-39.57-14.79-39.57-14.79L75.84,154Z" style="fill:#ffece3"/><path d="M48.07,68.65l2.5-22.77S65,49.48,79.73,45.32s25.83-6.11,25.83-6.11,13.05,8.05,23.33,8.05a134.43,134.43,0,0,0,20-1.67L152.21,70l6.11-.83s11.94-33-5.28-50-43.6-10.55-43.6-10.55S93.06-4.39,65.56,7,38.35,50.87,38.35,50.87l3.33,20Z" style="fill:#6c9dff"/><path d="M39.27,163.45c-9.33,10.89-11.2,33.37-11.2,33.37h143.7s2.18-19.37-10.26-31.5c-6.13-6-15.29-8.48-23-9.48,0,0-13.24,12.13-35.63,12.13-26.36,0-41.76-11.43-41.76-11.43A21.39,21.39,0,0,0,39.27,163.45Z" style="fill:#ce66ff"/><path d="M50,44.21s13.75,6.25,31.66,1.25,25-7.5,25-7.5,3.33,6.66,19.16,7.91,25-.42,25-.42l1.25,23.33s17.08,1.67,16.25,14.16-15,14.58-15,14.58l-.42,14.16s.42,6.25-7.5,13.75-12.5,7.91-12.5,7.91H70s-11.66-.42-16.66-7.91-6.25-13.33-6.25-13.33l.83-13.75s-17.08-1.25-15-14.16S47.51,70.87,47.51,70.87Z" style="fill:#ffece3"/><path d="M100,100c6.94,0,16.38-3.05,18.05.83s-6.11,12.5-17.77,12.5-23.14-9.54-18.05-14.16C85.28,96.42,100,100,100,100Z" style="fill:#ec7094"/><circle cx="142.54" cy="102.8" r="9.16" style="fill:#ec7094"/><circle cx="57.46" cy="102.8" r="9.16" style="fill:#ec7094"/><path d="M116.49,61c-5.34,0-8.25,2.32-8.57,2.59a2.48,2.48,0,0,0-.32,3.48,2.52,2.52,0,0,0,3.5.38A9.06,9.06,0,0,1,116.49,66a9.17,9.17,0,0,1,5.4,1.44,2.5,2.5,0,0,0,3.18-3.86A13.73,13.73,0,0,0,116.49,61Z" style="fill:#4c4497"/><path d="M83.49,66a9.18,9.18,0,0,1,5.41,1.44,2.5,2.5,0,0,0,3.18-3.86A13.74,13.74,0,0,0,83.49,61c-5.34,0-8.25,2.32-8.57,2.59a2.48,2.48,0,0,0-.31,3.47,2.52,2.52,0,0,0,3.5.38A9.05,9.05,0,0,1,83.49,66Z" style="fill:#4c4497"/><circle cx="83.89" cy="82.08" r="6.63" style="fill:#4c4497"/><circle cx="116.11" cy="82.08" r="6.63" style="fill:#4c4497"/><path d="M116.68,164.08c-.73.18-1.47.34-2.21.49a1.67,1.67,0,0,0,.66,3.27c.78-.16,1.56-.34,2.32-.52a1.67,1.67,0,0,0-.77-3.24Z" style="fill:#4c4497"/><path d="M117.53,97.83c-1.9-1-4.91-.52-8.09,0-.9.16-1.81.31-2.68.43a56.36,56.36,0,0,1-6.76.51,56.73,56.73,0,0,1-6.76-.5c-.87-.12-1.78-.27-2.68-.43-3.18-.54-6.19-1.06-8.09,0A5.2,5.2,0,0,0,79.81,104c1.33,5.25,9.24,10.69,20.19,10.71h.1c10.88,0,18.75-5.47,20.08-10.71A5.2,5.2,0,0,0,117.53,97.83Zm-.57,5.33c-.84,3.29-6.77,8.16-16.88,8.2H100c-10.14,0-16.1-4.9-16.94-8.2a1.9,1.9,0,0,1,1-2.4,2.8,2.8,0,0,1,1.24-.2,32,32,0,0,1,4.69.59c.94.16,1.89.32,2.8.45a60.39,60.39,0,0,0,7.2.53,60,60,0,0,0,7.2-.54c.91-.12,1.86-.28,2.8-.44,2.13-.37,5-.87,5.94-.38A1.9,1.9,0,0,1,117,103.16Z" style="fill:#4c4497"/><path d="M172.7,180.85a30.52,30.52,0,0,0-27.22-26.53l-15.17-1.57a5.32,5.32,0,0,1-4.68-4.23L123.46,138h3.77a28.48,28.48,0,0,0,28.46-29.54l-.27-7.33a17.13,17.13,0,0,0,6.29-32.51c2.94-9.92,8.45-35.32-6-51.66C139.7-1.06,115,3.25,109.41,4.51c-6-2.25-35.23-11.78-58.42,6.35C28.38,28.55,34.36,56.66,38.31,68.66a17.13,17.13,0,0,0,6.28,32.51l-.27,7.33A28.48,28.48,0,0,0,72.78,138h3.77l-2.18,10.49a5.32,5.32,0,0,1-4.68,4.23l-15.18,1.57A30.52,30.52,0,0,0,27.3,180.85l-2,15.39A3.33,3.33,0,0,0,28.17,200l.43,0a3.33,3.33,0,0,0,3.3-2.9l2-15.39A23.88,23.88,0,0,1,55.2,161l9.56-1c9.44,6,22,9.37,35.23,9.37,2.33,0,4.66-.1,6.93-.31a1.67,1.67,0,1,0-.3-3.32c-2.17.2-4.4.29-6.63.29a66.06,66.06,0,0,1-29.54-6.64,12,12,0,0,0,10.44-9.49L83.35,138h33.29l2.46,11.84a12,12,0,0,0,10.5,9.51,55,55,0,0,1-6.6,2.83,1.67,1.67,0,0,0,.56,3.24,1.65,1.65,0,0,0,.56-.09A55.41,55.41,0,0,0,135.26,160l9.54,1a23.88,23.88,0,0,1,21.3,20.75l2,15.39a3.33,3.33,0,0,0,3.3,2.9l.43,0a3.33,3.33,0,0,0,2.87-3.73ZM155.16,94.53,154.7,82l4.3,2.34a1.67,1.67,0,0,0,1.59-2.93l-5.4-2.95a1.66,1.66,0,0,0-.63-.2l-.18-4.8a10.53,10.53,0,0,1,.78,21ZM35.3,84.07A10.57,10.57,0,0,1,45.61,73.52l-.18,4.8a1.65,1.65,0,0,0-.63.2l-5.4,2.95A1.67,1.67,0,1,0,41,84.39L45.3,82l-.46,12.48A10.55,10.55,0,0,1,35.3,84.07Zm12.7-42a3.33,3.33,0,0,0-1.31,2.53l-.82,22.23c-.39,0-.75.09-1.13.11-3.5-10.29-9.32-35.45,10.36-50.83s45.79-7.55,51.58-5.5l-.46,4a1.67,1.67,0,0,0,1.46,1.85h.2A1.67,1.67,0,0,0,109.52,15l.43-3.75h.1c.26-.07,25.63-6.76,40.65,10.21,12.23,13.82,7.09,36.84,4.53,45.53-.37,0-.72-.11-1.09-.11l-.82-22.23a3.34,3.34,0,0,0-4.55-3A44.7,44.7,0,0,1,128,43.41a54.51,54.51,0,0,1-20.82-8l1.73-15a1.67,1.67,0,0,0-3.31-.38l-1.74,15.11a3.23,3.23,0,0,0-.41.18c-.09.05-8.84,5.46-24.24,7.32a90.75,90.75,0,0,1-28.4-1.08A3.37,3.37,0,0,0,48,42.08Zm9.08,82.62A21.62,21.62,0,0,1,51,108.75l2.22-60A99.33,99.33,0,0,0,80,49.18c12.86-1.55,21.49-5.36,25.1-7.23A61.1,61.1,0,0,0,127,50a52.88,52.88,0,0,0,19.82-.86l2.21,59.6a21.82,21.82,0,0,1-21.8,22.62H72.78A21.63,21.63,0,0,1,57.07,124.69Z" style="fill:#4c4497"/></svg>