<?xml version="1.0" standalone="no"?><!DOCTYPE svg PUBLIC "-//W3C//DTD SVG 1.1//EN" "http://www.w3.org/Graphics/SVG/1.1/DTD/svg11.dtd"><svg t="1579076175342" class="icon" viewBox="0 0 1024 1024" version="1.1" xmlns="http://www.w3.org/2000/svg" p-id="9812" xmlns:xlink="http://www.w3.org/1999/xlink" width="128" height="128"><defs><style type="text/css"></style></defs><path d="M222.559888 537.001417c97.603969-20.961404 84.308151-137.611148 81.377402-163.081239-4.787026-39.311331-51.006697-108.024296-113.781416-102.592586-78.977749 7.071046-90.520643 121.193223-90.520643 121.193223C88.951915 445.23234 125.20663 557.940308 222.559888 537.001417zM326.187037 739.826845c-2.87856 8.222265-9.243525 29.196972-3.737114 47.471175 10.898211 40.953737 46.460148 42.807968 46.460148 42.807968l51.130518 0L420.040588 705.175651l-54.731532 0C340.711845 712.512756 328.827167 731.630163 326.187037 739.826845zM403.661549 341.413833c53.949726 0 97.466845-62.029752 97.466845-138.759297 0-76.603679-43.517119-138.633431-97.466845-138.633431-53.795207 0-97.490382 62.029752-97.490382 138.633431C306.172191 279.384082 349.867366 341.413833 403.661549 341.413833zM635.8354 350.581634c72.030523 9.333576 118.363781-67.561745 127.558188-125.815497 9.382695-58.19133-37.103036-125.805264-88.107687-137.409556C624.192222 75.625398 560.380894 157.468404 554.571584 210.875778 547.615149 276.151457 563.903114 341.312526 635.8354 350.581634zM812.342416 693.102684c0 0-111.458511-86.252433-176.507016-179.411159-88.221274-137.461745-213.508745-81.517595-255.422344-11.643178-41.724287 69.88465-106.733906 114.084315-115.979478 125.778658-9.392928 11.529591-134.654816 79.166037-106.83419 202.685235 27.795043 123.441427 125.473713 121.092939 125.473713 121.092939s71.957869 7.083326 155.482167-11.592013c83.534532-18.551518 155.427932 4.608971 155.427932 4.608971s195.123003 65.326844 248.527306-60.451814C895.841132 758.351758 812.342416 693.102684 812.342416 693.102684zM478.499002 880.329856 351.633592 880.329856c-54.79293-10.921747-76.603679-48.339962-79.367629-54.679343-2.689249-6.465249-18.223037-36.534078-10.003841-87.654362 23.653723-76.577073 91.189885-82.122369 91.189885-82.122369l67.525929 0 0-83.004459 57.522088 0.88209L478.500025 880.329856zM714.761983 879.460046 568.778144 879.460046c-56.587809-14.59951-59.225893-54.782697-59.225893-54.782697L509.552252 663.23647l59.225893-0.933255 0 145.073096c3.586688 15.445784 22.832008 18.275225 22.832008 18.275225l60.111053 0L651.721205 663.23647l63.040778 0L714.761983 879.460046zM921.401274 448.403566c0-27.872814-23.147186-111.825878-109.058858-111.825878-86.050842 0-97.529267 79.231529-97.529267 135.223774 0 53.482075 4.520967 128.116913 111.38074 125.703957C933.120177 595.156932 921.401274 476.461599 921.401274 448.403566z" p-id="9813"></path></svg>