<?xml version="1.0" standalone="no"?><!DOCTYPE svg PUBLIC "-//W3C//DTD SVG 1.1//EN" "http://www.w3.org/Graphics/SVG/1.1/DTD/svg11.dtd"><svg t="1579074592571" class="icon" viewBox="0 0 1026 1024" version="1.1" xmlns="http://www.w3.org/2000/svg" p-id="6103" xmlns:xlink="http://www.w3.org/1999/xlink" width="128.25" height="128"><defs><style type="text/css"></style></defs><path d="M397.312 862.208c-71.68 72.704-190.464 75.776-264.192 4.096-73.728-72.704-76.8-191.488-3.072-264.192 72.704-74.752 191.488-75.776 265.216-4.096s74.752 189.44 2.048 264.192z m514.048-413.696l21.504 78.848-87.04 35.84-41.984-69.632 3.072-1.024c-30.72 5.12-62.464 7.168-95.232 0l-40.96 69.632-87.04-35.84 20.48-78.848 1.024 1.024c-25.6-18.432-48.128-39.936-65.536-65.536l-78.848 20.48-35.84-87.04 68.608-40.96 2.048 2.048c-5.12-30.72-5.12-62.464 0-94.208l-69.632-40.96 35.84-87.04 78.848 19.456v4.096c11.264-15.36 22.528-28.672 37.888-41.984H124.928c-31.744 0-57.344 26.624-57.344 58.368v378.88l53.248 38.912-1.024 1.024c26.624-17.408 54.272-29.696 84.992-35.84l11.264-78.848 92.16-1.024 12.288 77.824h-3.072c29.696 6.144 59.392 17.408 86.016 33.792l62.464-48.128 65.536 64.512-47.104 63.488-1.024-1.024c17.408 26.624 29.696 54.272 35.84 83.968l78.848 10.24 2.048 92.16-78.848 13.312v-3.072c-7.168 29.696-17.408 59.392-33.792 86.016l43.008 54.272h368.64c31.744 0 57.344-24.576 57.344-58.368v-455.68c-14.336 13.312-28.672 26.624-45.056 36.864z m23.552-145.408c-39.936 97.28-152.576 142.336-248.832 102.4-97.28-39.936-142.336-151.552-102.4-247.808 39.936-97.28 152.576-142.336 248.832-102.4 97.28 39.936 143.36 150.528 102.4 247.808z" p-id="6104"></path></svg>