<?xml version="1.0" standalone="no"?><!DOCTYPE svg PUBLIC "-//W3C//DTD SVG 1.1//EN" "http://www.w3.org/Graphics/SVG/1.1/DTD/svg11.dtd"><svg t="1579074994215" class="icon" viewBox="0 0 1024 1024" version="1.1" xmlns="http://www.w3.org/2000/svg" p-id="24503" xmlns:xlink="http://www.w3.org/1999/xlink" width="128" height="128"><defs><style type="text/css"></style></defs><path d="M432.64 474.112L153.088 327.68l-0.512-0.512c-13.312-6.656-26.624-9.728-39.424-9.728-34.816 0-60.928 26.112-60.928 60.416V773.12c0 35.84 27.648 75.264 65.536 93.696L396.8 1013.76l1.024 0.512c13.312 6.656 26.624 9.728 39.424 9.728 34.816 0 60.928-26.112 60.928-60.416V568.32c0-35.84-27.648-75.264-65.536-94.208zM420.352 568.32v370.176l-267.264-140.288-1.024-0.512c-13.312-6.656-22.016-20.48-22.528-24.064V403.456l267.264 140.288 0.512 0.512c13.824 6.144 22.528 19.968 23.04 24.064zM910.848 317.44c-12.8 0-26.112 3.072-39.424 9.728l-279.552 146.944c-37.888 18.944-65.536 58.368-65.536 94.208v395.264c0 34.304 26.112 60.416 60.928 60.416 12.8 0 26.112-3.072 39.424-9.728l279.552-146.944c37.888-18.944 65.536-58.368 65.536-94.208V377.856c0.512-34.304-26.112-60.416-60.928-60.416z m-16.384 455.68c-0.512 4.096-9.216 17.92-23.04 24.576l-267.776 140.288V568.32c0.512-4.096 9.216-17.92 23.04-24.576l267.776-140.288V773.12zM883.712 284.16c26.112-13.312 40.96-34.816 40.96-58.88s-14.848-45.056-40.96-57.856l-312.32-154.112C553.984 4.608 531.968 0 508.416 0 484.352 0 460.8 5.12 442.368 14.336L126.464 175.104c-26.112 13.312-40.96 34.816-40.96 58.88s15.36 45.056 40.96 57.856l312.32 154.112c17.408 8.704 39.936 13.312 62.976 13.312 24.576 0 48.128-5.12 66.048-14.336l315.904-160.768zM508.416 77.824c11.264 0 21.504 2.048 28.672 5.12l289.792 142.848-293.888 149.504c-7.68 3.584-18.944 6.144-31.232 6.144-11.264 0-21.504-2.048-28.672-5.12L183.808 233.472l293.888-149.504c7.168-3.584 18.944-6.144 30.72-6.144z" p-id="24504"></path></svg>
