<?xml version="1.0" standalone="no"?><!DOCTYPE svg PUBLIC "-//W3C//DTD SVG 1.1//EN" "http://www.w3.org/Graphics/SVG/1.1/DTD/svg11.dtd"><svg t="1579140841412" class="icon" viewBox="0 0 1024 1024" version="1.1" xmlns="http://www.w3.org/2000/svg" p-id="2819" xmlns:xlink="http://www.w3.org/1999/xlink" width="128" height="128"><defs><style type="text/css"></style></defs><path d="M521.47927889 273.89816784c-26.30854939 0-49.39950646-9.93668236-69.17823502-29.8100471a94.91897362 94.91897362 0 0 1-29.81004553-69.17823501c0-26.781724 9.93668236-50.15658645 29.81004553-70.02994962 19.87336473-19.77872855 42.86968562-29.71541093 69.17823502-29.71541249 26.30854939 0 49.58877566 9.93668236 69.65141117 29.81004709a95.20287902 95.20287902 0 0 1 0 139.11355003c-20.06263396 19.87336473-43.34286179 29.8100471-69.65141117 29.8100471z m497.21265059 224.28511209a47.31753411 47.31753411 0 0 1-47.31753411 47.31753411H72.34124396a47.31753411 47.31753411 0 1 1 0-94.63506825H971.37439537a47.31753411 47.31753411 0 0 1 47.31753411 47.31753414z m-497.21265059 471.28264121c-26.30854939 0-49.39950646-9.93668236-69.17823502-29.81004712a95.77068978 95.77068978 0 0 1-29.81004553-69.93531501 94.63506825 94.63506825 0 0 1 29.81004553-69.55677502 96.62240438 96.62240438 0 0 1 138.82964619 0 94.06725746 94.06725746 0 0 1 30.09395094 69.55677502c0 26.781724-10.03131698 50.15658645-30.09395094 70.02994961-20.06263396 19.87336473-43.34286179 29.71541093-69.65141117 29.71541252z" p-id="2820"></path></svg>