<?xml version="1.0" standalone="no"?><!DOCTYPE svg PUBLIC "-//W3C//DTD SVG 1.1//EN" "http://www.w3.org/Graphics/SVG/1.1/DTD/svg11.dtd"><svg t="1579076304962" class="icon" viewBox="0 0 1024 1024" version="1.1" xmlns="http://www.w3.org/2000/svg" p-id="11329" xmlns:xlink="http://www.w3.org/1999/xlink" width="128" height="128"><defs><style type="text/css"></style></defs><path d="M512 96a364.8 364.8 0 0 0-364.8 364.8c0 131.584 110.131 287.232 327.578 471.347 21.504 18.176 52.992 18.176 74.444 0C766.67 748.032 876.8 592.384 876.8 460.8A364.8 364.8 0 0 0 512 96z m3.277 786.688a6.4 6.4 0 0 1 0.614 0.358l-0.614-0.358zM211.2 460.8a300.8 300.8 0 0 1 601.6 0c0 106.547-99.328 247.654-300.8 418.97C310.528 708.454 211.2 567.347 211.2 460.8z" p-id="11330"></path><path d="M512 300.8a160 160 0 1 0 0 320 160 160 0 0 0 0-320z m0 64a96 96 0 1 1 0 192 96 96 0 0 1 0-192z" p-id="11331"></path></svg>