<?xml version="1.0" standalone="no"?><!DOCTYPE svg PUBLIC "-//W3C//DTD SVG 1.1//EN" "http://www.w3.org/Graphics/SVG/1.1/DTD/svg11.dtd"><svg t="1585469615933" class="icon" viewBox="0 0 1024 1024" version="1.1" xmlns="http://www.w3.org/2000/svg" p-id="6195" xmlns:xlink="http://www.w3.org/1999/xlink" width="128" height="128"><defs><style type="text/css"></style></defs><path d="M810.666667 938.666667H213.333333c-72.533333 0-128-55.466667-128-128V213.333333c0-72.533333 55.466667-128 128-128h597.333334c72.533333 0 128 55.466667 128 128v597.333334c0 72.533333-55.466667 128-128 128zM213.333333 170.666667c-25.6 0-42.666667 17.066667-42.666666 42.666666v597.333334c0 25.6 17.066667 42.666667 42.666666 42.666666h597.333334c25.6 0 42.666667-17.066667 42.666666-42.666666V213.333333c0-25.6-17.066667-42.666667-42.666666-42.666666H213.333333z" p-id="6196"></path><path d="M426.666667 725.333333H298.666667c-25.6 0-42.666667-17.066667-42.666667-42.666666V298.666667c0-25.6 17.066667-42.666667 42.666667-42.666667h128c25.6 0 42.666667 17.066667 42.666666 42.666667v384c0 25.6-17.066667 42.666667-42.666666 42.666666z m-85.333334-85.333333h42.666667V341.333333H341.333333v298.666667zM725.333333 554.666667h-128c-25.6 0-42.666667-17.066667-42.666666-42.666667V298.666667c0-25.6 17.066667-42.666667 42.666666-42.666667h128c25.6 0 42.666667 17.066667 42.666667 42.666667v213.333333c0 25.6-17.066667 42.666667-42.666667 42.666667z m-85.333333-85.333334h42.666667V341.333333h-42.666667v128z" p-id="6197"></path></svg>